<?xml version="1.0" encoding="utf-8"?>
<!-- Generator: Adobe Illustrator 20.1.0, SVG Export Plug-In . SVG Version: 6.00 Build 0)  -->
<svg version="1.1" xmlns="http://www.w3.org/2000/svg" xmlns:xlink="http://www.w3.org/1999/xlink" x="0px" y="0px"
	 viewBox="0 0 1184.9 280.4" style="enable-background:new 0 0 1184.9 280.4;" xml:space="preserve">
<style type="text/css">
	.st0{display:none;}
	.st1{display:inline;}
	.st2{fill:#868686;}
	.st3{fill:#CC322C;}
	.st4{fill:#FFFFFF;}
	.st5{fill:#000000;}
</style>
<g id="Layer_19">
</g>
<g id="Layer_18">
</g>
<g id="Layer_17">
</g>
<g id="Layer_16">
</g>
<g id="Layer_15">
</g>
<g id="Layer_14">
</g>
<g id="Layer_13">
</g>
<g id="Layer_12" class="st0">
	<g class="st1">
		<path class="st2" d="M306.1,156.3l28.1-4.6c1.2,5.8,3.6,10.3,7.3,13.3c3.7,3,8.8,4.5,15.3,4.5c7.2,0,12.7-1.4,16.3-4.3
			c2.5-2,3.7-4.7,3.7-8c0-2.3-0.7-4.2-2-5.7c-1.4-1.4-4.5-2.7-9.4-4c-22.6-5.3-36.9-10.2-43-14.6c-8.4-6.1-12.6-14.6-12.6-25.5
			c0-9.8,3.6-18.1,10.9-24.8c7.2-6.7,18.5-10,33.7-10c14.5,0,25.2,2.5,32.3,7.6c7,5.1,11.9,12.5,14.6,22.4l-26.4,5.2
			c-1.1-4.4-3.3-7.8-6.4-10.2c-3.2-2.4-7.7-3.5-13.5-3.5c-7.4,0-12.7,1.1-15.8,3.3c-2.1,1.6-3.2,3.6-3.2,6.1c0,2.1,0.9,4,2.8,5.5
			c2.5,2,11.2,4.8,26.2,8.4c14.9,3.6,25.3,8.1,31.2,13.4c5.8,5.3,8.8,12.8,8.8,22.3c0,10.4-4.1,19.3-12.2,26.8
			c-8.1,7.5-20.1,11.2-36,11.2c-14.4,0-25.8-3.1-34.2-9.4C314.2,175.5,308.7,167,306.1,156.3z"/>
		<path class="st2" d="M429.2,61.4v-28h29.2v28H429.2z M429.2,191.2V76.9h29.2v114.3H429.2z"/>
		<path class="st2" d="M584.5,190.6h-29.4v-58.3c0-12.3-0.6-20.3-1.9-24c-1.3-3.6-3.3-6.4-6.1-8.5c-2.8-2-6.2-3-10.2-3
			c-5.1,0-9.7,1.4-13.7,4.3c-4,2.9-6.8,6.7-8.3,11.4c-1.5,4.7-2.2,13.5-2.2,26.3v51.8h-29.4V76.3h27.3v16.8
			c9.7-12.9,21.9-19.4,36.6-19.4c6.5,0,12.4,1.2,17.8,3.6c5.4,2.4,9.4,5.5,12.2,9.2c2.8,3.7,4.7,8,5.8,12.7
			c1.1,4.7,1.6,11.5,1.6,20.3V190.6z"/>
		<path class="st2" d="M629.1,111.8l-26.2-5c2.9-11.1,8-19.2,15.2-24.5c7.2-5.3,17.9-8,32-8c12.9,0,22.4,1.6,28.7,4.8
			c6.3,3.2,10.7,7.2,13.3,12.2c2.6,4.9,3.9,13.9,3.9,27.1l-0.3,35.3c0,10,0.5,17.5,1.4,22.2c0.9,4.8,2.7,9.9,5.2,15.3h-28.5
			c-0.8-2-1.7-5-2.8-8.9c-0.5-1.8-0.8-3-1-3.6c-4.9,5-10.2,8.8-15.8,11.3c-5.6,2.5-11.6,3.8-18,3.8c-11.2,0-20.1-3.2-26.5-9.6
			c-6.5-6.4-9.7-14.5-9.7-24.2c0-6.5,1.5-12.2,4.4-17.3c2.9-5.1,7.1-8.9,12.4-11.6c5.3-2.7,13-5,22.9-7.1c13.5-2.7,22.8-5.1,28-7.4
			v-3c0-5.8-1.4-10-4.1-12.4c-2.7-2.5-7.9-3.7-15.5-3.7c-5.1,0-9.1,1.1-12,3.2C633.2,102.8,630.9,106.5,629.1,111.8z M667.7,136.3
			c-3.7,1.3-9.5,2.8-17.6,4.6c-8,1.8-13.2,3.6-15.7,5.3c-3.8,2.8-5.6,6.4-5.6,10.7c0,4.2,1.5,7.9,4.5,11c3,3.1,6.8,4.6,11.5,4.6
			c5.2,0,10.2-1.8,14.9-5.4c3.5-2.7,5.8-6.1,6.9-10c0.8-2.6,1.1-7.5,1.1-14.7V136.3z"/>
		<path class="st2" d="M750.5,190.6h-29.3V76.3h27.3v16.3c4.7-7.7,8.9-12.7,12.6-15.2c3.7-2.4,8-3.7,12.7-3.7
			c6.7,0,13.1,1.9,19.3,5.7l-9.1,26.4c-4.9-3.3-9.5-5-13.8-5c-4.1,0-7.6,1.2-10.4,3.5c-2.9,2.3-5.1,6.6-6.7,12.6
			c-1.6,6.1-2.5,18.9-2.5,38.3V190.6z"/>
		<path class="st2" d="M799.9,76.3h25.5v15.6c9.1-12.1,20-18.2,32.6-18.2c6.7,0,12.5,1.5,17.4,4.5c4.9,3,9,7.6,12.1,13.7
			c4.6-6.1,9.6-10.7,14.9-13.7c5.3-3,11-4.5,17-4.5c7.7,0,14.2,1.7,19.5,5.1c5.3,3.4,9.3,8.4,11.9,15c1.9,4.9,2.9,12.8,2.9,23.7
			v73.1H926v-65.3c0-11.3-1-18.7-2.9-22c-2.6-4.3-6.5-6.5-11.8-6.5c-3.9,0-7.5,1.3-10.9,3.9c-3.4,2.6-5.9,6.4-7.4,11.4
			c-1.5,5-2.3,12.9-2.3,23.6v54.9h-27.7v-62.7c0-11.1-0.5-18.3-1.5-21.5c-1-3.2-2.5-5.6-4.6-7.2c-2.1-1.6-4.9-2.4-8.4-2.4
			c-4.3,0-8.1,1.3-11.5,3.8c-3.4,2.5-5.9,6.1-7.3,10.9c-1.5,4.7-2.2,12.6-2.2,23.6v55.5h-27.7V76.3z"/>
		<path class="st2" d="M1003.4,109.9l-25.2-5c2.8-11.1,7.7-19.2,14.6-24.5c6.9-5.3,17.2-8,30.8-8c12.4,0,21.6,1.6,27.7,4.8
			c6.1,3.2,10.3,7.2,12.8,12.2c2.5,4.9,3.7,13.9,3.7,27.1l-0.3,35.3c0,10,0.4,17.5,1.3,22.2c0.9,4.8,2.6,9.9,5,15.3h-27.5
			c-0.7-2-1.6-5-2.7-8.9c-0.5-1.8-0.8-3-1-3.6c-4.7,5-9.8,8.8-15.2,11.3c-5.4,2.5-11.2,3.8-17.3,3.8c-10.8,0-19.3-3.2-25.5-9.6
			c-6.2-6.4-9.3-14.5-9.3-24.2c0-6.5,1.4-12.2,4.2-17.3c2.8-5.1,6.8-8.9,11.9-11.6c5.1-2.7,12.5-5,22.1-7.1c13-2.7,22-5.1,27-7.4v-3
			c0-5.8-1.3-10-4-12.4c-2.6-2.5-7.6-3.7-14.9-3.7c-4.9,0-8.8,1.1-11.6,3.2C1007.3,100.8,1005.1,104.5,1003.4,109.9z M1040.5,134.4
			c-3.6,1.3-9.2,2.8-16.9,4.6c-7.7,1.8-12.7,3.6-15.1,5.3c-3.6,2.8-5.4,6.4-5.4,10.7c0,4.2,1.4,7.9,4.3,11c2.9,3.1,6.6,4.6,11.1,4.6
			c5,0,9.8-1.8,14.3-5.4c3.4-2.7,5.6-6.1,6.6-10c0.7-2.6,1.1-7.5,1.1-14.7V134.4z"/>
		<path class="st2" d="M1084.2,156.7l28.6-4.6c1.2,5.9,3.7,10.4,7.4,13.4c3.7,3.1,8.9,4.6,15.6,4.6c7.4,0,12.9-1.4,16.6-4.3
			c2.5-2,3.8-4.7,3.8-8.1c0-2.3-0.7-4.2-2-5.7c-1.4-1.4-4.6-2.8-9.5-4c-23-5.4-37.6-10.3-43.7-14.7c-8.5-6.2-12.8-14.7-12.8-25.7
			c0-9.9,3.7-18.2,11.1-25c7.4-6.7,18.8-10.1,34.3-10.1c14.7,0,25.7,2.5,32.9,7.6c7.2,5.1,12.1,12.6,14.8,22.6l-26.9,5.3
			c-1.2-4.5-3.3-7.9-6.5-10.2c-3.2-2.4-7.8-3.6-13.8-3.6c-7.5,0-12.9,1.1-16.1,3.3c-2.2,1.6-3.2,3.6-3.2,6.1c0,2.2,0.9,4,2.8,5.5
			c2.6,2,11.5,4.8,26.6,8.5c15.2,3.7,25.8,8.1,31.8,13.5c6,5.4,8.9,12.9,8.9,22.5c0,10.5-4.1,19.5-12.4,27
			c-8.3,7.5-20.5,11.3-36.6,11.3c-14.7,0-26.3-3.2-34.9-9.5C1092.5,176.1,1086.9,167.5,1084.2,156.7z"/>
	</g>
</g>
<g id="Layer_11">
</g>
<g id="Layer_10">
</g>
<g id="Layer_9">
</g>
<g id="Layer_8">
</g>
<g id="Layer_7">
</g>
<g id="Layer_6">
</g>
<g id="Layer_5">
</g>
<g id="Layer_4">
</g>
<g id="Layer_2">
	<g>
		<path class="st3" d="M242.5,264.3H21.8c-12,0-21.8-9.8-21.8-21.8V21.8C0,9.8,9.8,0,21.8,0h220.7c12,0,21.8,9.8,21.8,21.8v220.7
			C264.3,254.5,254.5,264.3,242.5,264.3z"/>
		<path class="st4" d="M242.9,127.1c0,0-0.1-1.3-0.3-3.7c-0.2-2.4-0.6-5.9-1.3-10.2c-0.7-4.4-1.9-9.6-3.6-15.5
			c-1.9-5.8-4.4-12.2-8.1-18.6c-3.6-6.5-8.4-12.9-14.2-18.8c-3-2.9-6.1-5.8-9.6-8.4c-1.7-1.4-3.6-2.5-5.4-3.8
			c-1.9-1.1-3.8-2.4-5.8-3.4c-1.9-1.1-4-2.1-6-3.1c-2.1-0.9-4.2-1.8-6.4-2.6c-4.3-1.6-8.8-2.9-13.3-3.9c-9.1-2-18.6-2.7-28-2.2
			c-9.4,0.6-18.6,2.4-27.1,5.3c-4.3,1.4-8.4,3.2-12.2,5.2c-3.9,2-7.5,4.2-10.9,6.7c-3.4,2.4-6.5,5-9.3,7.8c-2.8,2.7-5.4,5.6-7.6,8.6
			c-4.5,5.9-7.9,12-10.2,18c-2.4,5.9-3.9,11.7-4.9,16.8c-0.9,5.2-1.3,9.8-1.5,13.6c-0.1,3.8-0.1,6.9,0,9c0.1,2.1,0.1,3.2,0.1,3.2
			H18.5c0,0,0.1-1.5,0.3-4.2c0.2-2.7,0.6-6.8,1.3-11.9c0.8-5.1,2.1-11.3,4.1-18.3c2.1-7,5.1-14.7,9.4-22.7c4.3-8,10-16,17.2-23.5
			c3.6-3.7,7.5-7.3,11.7-10.5c4.2-3.3,8.8-6.3,13.6-9c4.8-2.7,9.8-5.1,15.1-7c5.2-2,10.6-3.6,16.1-4.9c11-2.5,22.4-3.4,33.6-2.9
			c11.2,0.6,22.3,2.7,32.7,6.2c5.2,1.7,10.2,3.8,15,6.2c2.4,1.2,4.7,2.5,7,3.8c2.2,1.4,4.5,2.7,6.6,4.3c2.1,1.4,4.1,3.1,6.1,4.6
			c1.9,1.7,3.9,3.2,5.6,5c3.6,3.4,6.9,7,9.8,10.6c5.8,7.4,10.2,15.1,13.4,22.5c3.2,7.4,5.1,14.5,6.4,20.8c1.2,6.3,1.8,11.9,2,16.5
			c0.2,4.6,0.2,8.2,0.1,10.6c-0.1,2.4-0.1,3.8-0.1,3.8H242.9z"/>
		<path class="st4" d="M233.8,127.1c0,0-0.1-1-0.2-2.8c-0.1-0.9-0.2-2-0.4-3.2c-0.2-1.3-0.3-2.7-0.7-4.3c-0.5-3.2-1.6-7.1-3-11.3
			c-1.5-4.2-3.6-8.9-6.5-13.5c-2.9-4.6-6.6-9.2-11.1-13.4c-2.2-2.1-4.8-4-7.4-5.9c-2.7-1.8-5.5-3.5-8.4-5c-5.9-3-12.5-5.2-19.2-6.6
			c-3.4-0.7-6.8-1.1-10.3-1.4c-3.5-0.2-7-0.3-10.4-0.1c-6.9,0.4-13.7,1.6-20,3.7c-3.1,1-6.2,2.3-9,3.7c-2.9,1.4-5.5,3-8,4.7
			c-2.5,1.7-4.8,3.6-6.8,5.5c-2.1,1.9-3.9,4-5.5,6.1c-3.2,4.2-5.7,8.6-7.4,12.9c-1.7,4.3-2.8,8.4-3.4,12.1c-0.6,3.8-0.9,7.1-1,9.9
			c-0.1,2.8,0,5,0.1,6.5c0.1,1.5,0.1,2.3,0.1,2.3H62.4c0,0,0.1-1.1,0.2-3.2c0.1-2.1,0.5-5.1,1.1-9c0.6-3.9,1.6-8.6,3.2-13.9
			c1.7-5.3,4-11.2,7.4-17.2c3.3-6,7.9-12.1,13.4-17.7c2.8-2.8,5.8-5.4,9.1-7.8c3.3-2.4,6.8-4.6,10.5-6.5c3.7-2,7.6-3.6,11.6-5
			c4-1.4,8.1-2.5,12.2-3.3c8.3-1.7,16.9-2.1,25.3-1.5c4.2,0.3,8.4,0.9,12.4,1.7c4.1,0.8,8.1,1.9,12,3.2c7.8,2.6,15,6.2,21.5,10.5
			c3.2,2.2,6.2,4.5,9,6.9c2.7,2.5,5.3,5.1,7.6,7.8c4.6,5.3,8.1,11,10.6,16.5c2.6,5.5,4.2,10.8,5.3,15.5c1,4.7,1.6,8.9,1.7,12.3
			c0.2,1.7,0.1,3.3,0.2,4.6c0,1.4,0,2.5,0,3.3c-0.1,1.8-0.1,2.8-0.1,2.8H233.8z"/>
		<path class="st4" d="M223.5,127.1c0,0-0.1-0.7-0.2-1.9c-0.1-0.6-0.2-1.4-0.3-2.3c-0.1-0.4-0.1-0.9-0.2-1.4c-0.1-0.5-0.2-1-0.4-1.5
			c-0.3-1.1-0.6-2.3-0.9-3.6c-0.4-1.3-1-2.6-1.5-4.1c-1.2-2.9-2.8-5.9-4.9-9c-0.5-0.8-1.2-1.5-1.7-2.3c-0.6-0.7-1.2-1.5-1.9-2.3
			c-0.7-0.7-1.4-1.4-2.1-2.2c-0.4-0.4-0.7-0.7-1.1-1.1c-0.4-0.3-0.8-0.7-1.2-1c-3.1-2.8-7-5.1-11-7.2c-4.1-2-8.6-3.5-13.2-4.5
			c-4.6-1-9.4-1.3-14-1.2c-4.7,0.1-9.2,1.1-13.3,2.4c-2.1,0.6-4,1.6-5.9,2.4c-1.8,1.1-3.6,2-5.1,3.2c-0.8,0.6-1.6,1.1-2.2,1.8
			c-0.7,0.6-1.4,1.3-2,1.9c-1.1,1.4-2.4,2.6-3.3,4.2c-0.5,0.7-1,1.4-1.4,2.1c-0.4,0.7-0.7,1.5-1.1,2.2c-0.2,0.4-0.4,0.7-0.5,1
			c-0.1,0.4-0.3,0.8-0.4,1.1c-0.3,0.7-0.5,1.4-0.8,2.1c-0.3,0.7-0.4,1.4-0.6,2.1c-0.2,0.7-0.4,1.4-0.5,2.1c-0.2,0.6-0.3,1.4-0.4,2
			c-0.1,0.7-0.2,1.3-0.3,1.9c-0.1,0.6-0.2,1.2-0.2,1.8c0,0.6,0,1.2-0.1,1.8c-0.1,1.1-0.1,2.1-0.1,3.1c0.2,3.8,0.3,6,0.3,6h-28.1
			c0,0,0.1-0.8,0.2-2.2c0.2-1.5,0.4-3.6,0.7-6.3c0.3-1.4,0.6-2.9,0.9-4.5c0.2-0.8,0.4-1.7,0.5-2.5c0.2-0.9,0.5-1.8,0.8-2.7
			c0.3-0.9,0.6-1.9,0.9-2.9c0.3-1,0.6-2,1.1-3c0.4-1,0.9-2.1,1.4-3.2c0.5-1.1,0.9-2.2,1.6-3.2c0.6-1.1,1.2-2.2,1.9-3.3
			c0.3-0.6,0.7-1.1,1-1.7c0.4-0.5,0.8-1.1,1.2-1.6c0.8-1.1,1.6-2.2,2.4-3.3c0.9-1.1,1.9-2.1,2.8-3.1c1.9-2.2,4.2-3.9,6.5-5.8
			c1.2-0.9,2.5-1.7,3.7-2.5c1.2-0.9,2.6-1.6,3.9-2.2c2.6-1.5,5.5-2.5,8.4-3.6c2.9-0.8,5.9-1.7,8.9-2.1c6-1,12.1-1.2,18-0.4
			c5.9,0.7,11.6,2,17,4.1c5.3,2.1,10.3,4.6,14.7,7.8c4.4,3.2,8.3,6.5,11.4,10.3c0.4,0.5,0.8,0.9,1.2,1.4c0.4,0.5,0.7,1,1.1,1.4
			c0.7,1,1.4,1.9,2,2.8c0.6,1,1.2,2,1.7,2.9c0.5,1,1.1,1.8,1.5,2.8c1.8,3.8,3.1,7.4,3.8,10.7c0.3,1.7,0.7,3.2,0.9,4.6
			c0.1,1.5,0.2,2.8,0.4,4c0,0.6,0.1,1.2,0.1,1.7c0,0.5,0,1,0,1.5c0,0.9,0,1.7-0.1,2.3c0,1.2,0,2,0,2H223.5z"/>
		<path class="st4" d="M21.4,137.2c0,0,0.1,1.3,0.3,3.7c0.2,2.4,0.6,5.9,1.3,10.2c0.7,4.4,1.9,9.6,3.6,15.5
			c1.9,5.8,4.4,12.2,8.1,18.6c3.6,6.5,8.4,12.9,14.2,18.8c3,2.9,6.1,5.8,9.6,8.4c1.7,1.4,3.6,2.5,5.4,3.8c1.9,1.1,3.8,2.4,5.8,3.4
			c1.9,1.1,4,2.1,6,3.1c2.1,0.9,4.2,1.8,6.4,2.6c4.3,1.6,8.8,2.9,13.3,3.9c9.1,2,18.6,2.7,28,2.2c9.4-0.6,18.6-2.4,27.1-5.3
			c4.3-1.4,8.4-3.2,12.2-5.2c3.9-2,7.5-4.2,10.9-6.7c3.4-2.4,6.5-5,9.3-7.8c2.8-2.7,5.4-5.6,7.6-8.6c4.5-5.9,7.9-12,10.2-18
			c2.4-5.9,3.9-11.7,4.9-16.8c0.9-5.2,1.3-9.8,1.5-13.6c0.1-3.8,0.1-6.9,0-9c-0.1-2.1-0.1-3.2-0.1-3.2h38.8c0,0-0.1,1.5-0.3,4.2
			c-0.2,2.7-0.6,6.8-1.3,11.9c-0.8,5.1-2.1,11.3-4.1,18.3c-2.1,7-5.1,14.7-9.4,22.7c-4.3,8-10,16-17.2,23.5
			c-3.6,3.7-7.5,7.3-11.7,10.5c-4.2,3.3-8.8,6.3-13.6,9c-4.8,2.7-9.8,5.1-15.1,7c-5.2,2-10.6,3.6-16.1,4.9
			c-11,2.5-22.4,3.4-33.6,2.9c-11.2-0.6-22.3-2.7-32.7-6.2c-5.2-1.7-10.2-3.8-15-6.2c-2.4-1.2-4.7-2.5-7-3.8
			c-2.2-1.4-4.5-2.7-6.6-4.3c-2.1-1.4-4.1-3.1-6.1-4.6c-1.9-1.7-3.9-3.2-5.6-5c-3.6-3.4-6.9-7-9.8-10.6
			c-5.8-7.4-10.2-15.1-13.4-22.5c-3.2-7.4-5.1-14.5-6.4-20.8c-1.2-6.3-1.8-11.9-2-16.5c-0.2-4.6-0.2-8.2-0.1-10.6
			c0.1-2.4,0.1-3.8,0.1-3.8H21.4z"/>
		<path class="st4" d="M30.5,137.2c0,0,0.1,1,0.2,2.8c0.1,0.9,0.2,2,0.4,3.2c0.2,1.3,0.3,2.7,0.7,4.3c0.5,3.2,1.6,7.1,3,11.3
			c1.5,4.2,3.6,8.9,6.5,13.5c2.9,4.6,6.6,9.2,11.1,13.4c2.2,2.1,4.8,4,7.4,5.9c2.7,1.8,5.5,3.5,8.4,5c5.9,3,12.5,5.2,19.2,6.6
			c3.4,0.7,6.8,1.1,10.3,1.4c3.5,0.2,7,0.3,10.4,0.1c6.9-0.4,13.7-1.6,20-3.7c3.1-1,6.2-2.3,9-3.7c2.9-1.4,5.5-3,8-4.7
			c2.5-1.7,4.8-3.6,6.8-5.5c2.1-1.9,3.9-4,5.5-6.1c3.2-4.2,5.7-8.6,7.4-12.9c1.7-4.3,2.8-8.4,3.4-12.1c0.6-3.8,0.9-7.1,1-9.9
			c0.1-2.8,0-5-0.1-6.5c-0.1-1.5-0.1-2.3-0.1-2.3h32.8c0,0-0.1,1.1-0.2,3.2c-0.1,2.1-0.5,5.1-1.1,9c-0.6,3.9-1.6,8.6-3.2,13.9
			c-1.7,5.3-4,11.2-7.4,17.2c-3.3,6-7.9,12.1-13.4,17.7c-2.8,2.8-5.8,5.4-9.1,7.8c-3.3,2.4-6.8,4.6-10.5,6.5c-3.7,2-7.6,3.6-11.6,5
			c-4,1.4-8.1,2.5-12.2,3.3c-8.3,1.7-16.9,2.1-25.3,1.5c-4.2-0.3-8.4-0.9-12.4-1.7c-4.1-0.8-8.1-1.9-12-3.2
			c-7.8-2.6-15-6.2-21.5-10.5c-3.2-2.2-6.2-4.5-9-6.9c-2.7-2.5-5.3-5.1-7.6-7.8c-4.6-5.3-8.1-11-10.6-16.5
			c-2.6-5.5-4.2-10.8-5.3-15.5c-1-4.7-1.6-8.9-1.7-12.3c-0.2-1.7-0.1-3.3-0.2-4.6c0-1.4,0-2.5,0-3.3c0.1-1.8,0.1-2.8,0.1-2.8H30.5z"
			/>
		<path class="st4" d="M40.8,137.2c0,0,0.1,0.7,0.2,1.9c0.1,0.6,0.2,1.4,0.3,2.3c0.1,0.4,0.1,0.9,0.2,1.4c0.1,0.5,0.2,1,0.4,1.5
			c0.3,1.1,0.6,2.3,0.9,3.6c0.4,1.3,1,2.6,1.5,4.1c1.2,2.9,2.8,5.9,4.9,9c0.5,0.8,1.2,1.5,1.7,2.3c0.6,0.7,1.2,1.5,1.9,2.3
			c0.7,0.7,1.4,1.4,2.1,2.2c0.4,0.4,0.7,0.7,1.1,1.1c0.4,0.3,0.8,0.7,1.2,1c3.1,2.8,7,5.1,11,7.2c4.1,2,8.6,3.5,13.2,4.5
			c4.6,1,9.4,1.3,14,1.2c4.7-0.1,9.2-1.1,13.3-2.4c2.1-0.6,4-1.6,5.9-2.4c1.8-1.1,3.6-2,5.1-3.2c0.8-0.6,1.6-1.1,2.2-1.8
			c0.7-0.6,1.4-1.3,2-1.9c1.1-1.4,2.4-2.6,3.3-4.2c0.5-0.7,1-1.4,1.4-2.1c0.4-0.7,0.7-1.5,1.1-2.2c0.2-0.4,0.4-0.7,0.5-1
			c0.1-0.4,0.3-0.8,0.4-1.1c0.3-0.7,0.5-1.4,0.8-2.1c0.3-0.7,0.4-1.4,0.6-2.1c0.2-0.7,0.4-1.4,0.5-2.1c0.2-0.6,0.3-1.4,0.4-2
			c0.1-0.7,0.2-1.3,0.3-1.9c0.1-0.6,0.2-1.2,0.2-1.8c0-0.6,0-1.2,0.1-1.8c0.1-1.1,0.1-2.1,0.1-3.1c-0.2-3.8-0.3-6-0.3-6h28.1
			c0,0-0.1,0.8-0.2,2.2c-0.2,1.5-0.4,3.6-0.7,6.3c-0.3,1.4-0.6,2.9-0.9,4.5c-0.2,0.8-0.4,1.7-0.5,2.5c-0.2,0.9-0.5,1.8-0.8,2.7
			c-0.3,0.9-0.6,1.9-0.9,2.9c-0.3,1-0.6,2-1.1,3c-0.4,1-0.9,2.1-1.4,3.2c-0.5,1.1-0.9,2.2-1.6,3.2c-0.6,1.1-1.2,2.2-1.9,3.3
			c-0.3,0.6-0.7,1.1-1,1.7c-0.4,0.5-0.8,1.1-1.2,1.6c-0.8,1.1-1.6,2.2-2.4,3.3c-0.9,1.1-1.9,2.1-2.8,3.1c-1.9,2.2-4.2,3.9-6.5,5.8
			c-1.2,0.9-2.5,1.7-3.7,2.5c-1.2,0.9-2.6,1.6-3.9,2.2c-2.6,1.5-5.5,2.5-8.4,3.6c-2.9,0.8-5.9,1.7-8.9,2.1c-6,1-12.1,1.2-18,0.4
			c-5.9-0.7-11.6-2-17-4.1c-5.3-2.1-10.3-4.6-14.7-7.8c-4.4-3.2-8.3-6.5-11.4-10.3c-0.4-0.5-0.8-0.9-1.2-1.4c-0.4-0.5-0.7-1-1.1-1.4
			c-0.7-1-1.4-1.9-2-2.8c-0.6-1-1.2-2-1.7-2.9c-0.5-1-1.1-1.8-1.5-2.8c-1.8-3.8-3.1-7.4-3.8-10.7c-0.3-1.7-0.7-3.2-0.9-4.6
			c-0.1-1.5-0.2-2.8-0.4-4c0-0.6-0.1-1.2-0.1-1.7c0-0.5,0-1,0-1.5c0-0.9,0-1.7,0.1-2.3c0-1.2,0-2,0-2H40.8z"/>
		<g>
			<path class="st5" d="M306.1,156.3l28.1-4.6c1.2,5.8,3.6,10.3,7.3,13.3c3.7,3,8.8,4.5,15.3,4.5c7.2,0,12.7-1.4,16.3-4.3
				c2.5-2,3.7-4.7,3.7-8c0-2.3-0.7-4.2-2-5.7c-1.4-1.4-4.5-2.7-9.4-4c-22.6-5.3-36.9-10.2-43-14.6c-8.4-6.1-12.6-14.6-12.6-25.5
				c0-9.8,3.6-18.1,10.9-24.8c7.2-6.7,18.5-10,33.7-10c14.5,0,25.2,2.5,32.3,7.6c7,5.1,11.9,12.5,14.6,22.4l-26.4,5.2
				c-1.1-4.4-3.3-7.8-6.4-10.2c-3.2-2.4-7.7-3.5-13.5-3.5c-7.4,0-12.7,1.1-15.8,3.3c-2.1,1.6-3.2,3.6-3.2,6.1c0,2.1,0.9,4,2.8,5.5
				c2.5,2,11.2,4.8,26.2,8.4c14.9,3.6,25.3,8.1,31.2,13.4c5.8,5.3,8.8,12.8,8.8,22.3c0,10.4-4.1,19.3-12.2,26.8
				c-8.1,7.5-20.1,11.2-36,11.2c-14.4,0-25.8-3.1-34.2-9.4C314.2,175.5,308.7,167,306.1,156.3z"/>
			<path class="st5" d="M429.2,61.4v-28h29.2v28H429.2z M429.2,191.2V76.9h29.2v114.3H429.2z"/>
			<path class="st5" d="M584.5,190.6h-29.4v-58.3c0-12.3-0.6-20.3-1.9-24c-1.3-3.6-3.3-6.4-6.1-8.5c-2.8-2-6.2-3-10.2-3
				c-5.1,0-9.7,1.4-13.7,4.3c-4,2.9-6.8,6.7-8.3,11.4c-1.5,4.7-2.2,13.5-2.2,26.3v51.8h-29.4V76.3h27.3v16.8
				c9.7-12.9,21.9-19.4,36.6-19.4c6.5,0,12.4,1.2,17.8,3.6c5.4,2.4,9.4,5.5,12.2,9.2c2.8,3.7,4.7,8,5.8,12.7
				c1.1,4.7,1.6,11.5,1.6,20.3V190.6z"/>
			<path class="st5" d="M629.1,111.8l-26.2-5c2.9-11.1,8-19.2,15.2-24.5c7.2-5.3,17.9-8,32-8c12.9,0,22.4,1.6,28.7,4.8
				c6.3,3.2,10.7,7.2,13.3,12.2c2.6,4.9,3.9,13.9,3.9,27.1l-0.3,35.3c0,10,0.5,17.5,1.4,22.2c0.9,4.8,2.7,9.9,5.2,15.3h-28.5
				c-0.8-2-1.7-5-2.8-8.9c-0.5-1.8-0.8-3-1-3.6c-4.9,5-10.2,8.8-15.8,11.3c-5.6,2.5-11.6,3.8-18,3.8c-11.2,0-20.1-3.2-26.5-9.6
				c-6.5-6.4-9.7-14.5-9.7-24.2c0-6.5,1.5-12.2,4.4-17.3c2.9-5.1,7.1-8.9,12.4-11.6c5.3-2.7,13-5,22.9-7.1c13.5-2.7,22.8-5.1,28-7.4
				v-3c0-5.8-1.4-10-4.1-12.4c-2.7-2.5-7.9-3.7-15.5-3.7c-5.1,0-9.1,1.1-12,3.2C633.2,102.8,630.9,106.5,629.1,111.8z M667.7,136.3
				c-3.7,1.3-9.5,2.8-17.6,4.6c-8,1.8-13.2,3.6-15.7,5.3c-3.8,2.8-5.6,6.4-5.6,10.7c0,4.2,1.5,7.9,4.5,11c3,3.1,6.8,4.6,11.5,4.6
				c5.2,0,10.2-1.8,14.9-5.4c3.5-2.7,5.8-6.1,6.9-10c0.8-2.6,1.1-7.5,1.1-14.7V136.3z"/>
			<path class="st5" d="M750.5,190.6h-29.3V76.3h27.3v16.3c4.7-7.7,8.9-12.7,12.6-15.2c3.7-2.4,8-3.7,12.7-3.7
				c6.7,0,13.1,1.9,19.3,5.7l-9.1,26.4c-4.9-3.3-9.5-5-13.8-5c-4.1,0-7.6,1.2-10.4,3.5c-2.9,2.3-5.1,6.6-6.7,12.6
				c-1.6,6.1-2.5,18.9-2.5,38.3V190.6z"/>
			<path class="st5" d="M799.9,76.3h25.5v15.6c9.1-12.1,20-18.2,32.6-18.2c6.7,0,12.5,1.5,17.4,4.5c4.9,3,9,7.6,12.1,13.7
				c4.6-6.1,9.6-10.7,14.9-13.7c5.3-3,11-4.5,17-4.5c7.7,0,14.2,1.7,19.5,5.1c5.3,3.4,9.3,8.4,11.9,15c1.9,4.9,2.9,12.8,2.9,23.7
				v73.1H926v-65.3c0-11.3-1-18.7-2.9-22c-2.6-4.3-6.5-6.5-11.8-6.5c-3.9,0-7.5,1.3-10.9,3.9c-3.4,2.6-5.9,6.4-7.4,11.4
				c-1.5,5-2.3,12.9-2.3,23.6v54.9h-27.7v-62.7c0-11.1-0.5-18.3-1.5-21.5c-1-3.2-2.5-5.6-4.6-7.2c-2.1-1.6-4.9-2.4-8.4-2.4
				c-4.3,0-8.1,1.3-11.5,3.8c-3.4,2.5-5.9,6.1-7.3,10.9c-1.5,4.7-2.2,12.6-2.2,23.6v55.5h-27.7V76.3z"/>
			<path class="st5" d="M1003.4,109.9l-25.2-5c2.8-11.1,7.7-19.2,14.6-24.5c6.9-5.3,17.2-8,30.8-8c12.4,0,21.6,1.6,27.7,4.8
				c6.1,3.2,10.3,7.2,12.8,12.2c2.5,4.9,3.7,13.9,3.7,27.1l-0.3,35.3c0,10,0.4,17.5,1.3,22.2c0.9,4.8,2.6,9.9,5,15.3h-27.5
				c-0.7-2-1.6-5-2.7-8.9c-0.5-1.8-0.8-3-1-3.6c-4.7,5-9.8,8.8-15.2,11.3c-5.4,2.5-11.2,3.8-17.3,3.8c-10.8,0-19.3-3.2-25.5-9.6
				c-6.2-6.4-9.3-14.5-9.3-24.2c0-6.5,1.4-12.2,4.2-17.3c2.8-5.1,6.8-8.9,11.9-11.6c5.1-2.7,12.5-5,22.1-7.1c13-2.7,22-5.1,27-7.4
				v-3c0-5.8-1.3-10-4-12.4c-2.6-2.5-7.6-3.7-14.9-3.7c-4.9,0-8.8,1.1-11.6,3.2C1007.3,100.8,1005.1,104.5,1003.4,109.9z
				 M1040.5,134.4c-3.6,1.3-9.2,2.8-16.9,4.6c-7.7,1.8-12.7,3.6-15.1,5.3c-3.6,2.8-5.4,6.4-5.4,10.7c0,4.2,1.4,7.9,4.3,11
				c2.9,3.1,6.6,4.6,11.1,4.6c5,0,9.8-1.8,14.3-5.4c3.4-2.7,5.6-6.1,6.6-10c0.7-2.6,1.1-7.5,1.1-14.7V134.4z"/>
			<path class="st5" d="M1084.2,156.7l28.6-4.6c1.2,5.9,3.7,10.4,7.4,13.4c3.7,3.1,8.9,4.6,15.6,4.6c7.4,0,12.9-1.4,16.6-4.3
				c2.5-2,3.8-4.7,3.8-8.1c0-2.3-0.7-4.2-2-5.7c-1.4-1.4-4.6-2.8-9.5-4c-23-5.4-37.6-10.3-43.7-14.7c-8.5-6.2-12.8-14.7-12.8-25.7
				c0-9.9,3.7-18.2,11.1-25c7.4-6.7,18.8-10.1,34.3-10.1c14.7,0,25.7,2.5,32.9,7.6c7.2,5.1,12.1,12.6,14.8,22.6l-26.9,5.3
				c-1.2-4.5-3.3-7.9-6.5-10.2c-3.2-2.4-7.8-3.6-13.8-3.6c-7.5,0-12.9,1.1-16.1,3.3c-2.2,1.6-3.2,3.6-3.2,6.1c0,2.2,0.9,4,2.8,5.5
				c2.6,2,11.5,4.8,26.6,8.5c15.2,3.7,25.8,8.1,31.8,13.5c6,5.4,8.9,12.9,8.9,22.5c0,10.5-4.1,19.5-12.4,27
				c-8.3,7.5-20.5,11.3-36.6,11.3c-14.7,0-26.3-3.2-34.9-9.5C1092.5,176.1,1086.9,167.5,1084.2,156.7z"/>
			<g>
				<path class="st5" d="M312.3,225h9.6v5.4c3.4-4.2,7.5-6.3,12.3-6.3c2.5,0,4.7,0.5,6.6,1.6c1.9,1,3.4,2.6,4.6,4.7
					c1.7-2.1,3.6-3.7,5.6-4.7c2-1,4.1-1.6,6.4-1.6c2.9,0,5.3,0.6,7.4,1.8c2,1.2,3.5,2.9,4.5,5.2c0.7,1.7,1.1,4.4,1.1,8.2v25.2h-10.4
					v-22.5c0-3.9-0.4-6.4-1.1-7.6c-1-1.5-2.5-2.2-4.5-2.2c-1.5,0-2.8,0.4-4.1,1.3c-1.3,0.9-2.2,2.2-2.8,3.9
					c-0.6,1.7-0.9,4.4-0.9,8.2v18.9h-10.4v-21.6c0-3.8-0.2-6.3-0.6-7.4c-0.4-1.1-0.9-1.9-1.7-2.5c-0.8-0.5-1.8-0.8-3.2-0.8
					c-1.6,0-3.1,0.4-4.3,1.3c-1.3,0.9-2.2,2.1-2.8,3.7c-0.6,1.6-0.8,4.3-0.8,8.1v19.2h-10.4V225z"/>
				<path class="st5" d="M380.2,219.6V210h10.4v9.7H380.2z M380.2,264.4V225h10.4v39.4H380.2z"/>
				<path class="st5" d="M437.8,264.4h-10.4v-20.1c0-4.3-0.2-7-0.7-8.3c-0.4-1.2-1.2-2.2-2.2-2.9s-2.2-1-3.6-1
					c-1.8,0-3.4,0.5-4.9,1.5c-1.4,1-2.4,2.3-3,3.9c-0.5,1.6-0.8,4.7-0.8,9.1v17.9h-10.4V225h9.7v5.8c3.4-4.5,7.8-6.7,13-6.7
					c2.3,0,4.4,0.4,6.3,1.2c1.9,0.8,3.3,1.9,4.3,3.2c1,1.3,1.7,2.7,2,4.4c0.4,1.6,0.6,4,0.6,7V264.4z"/>
				<path class="st5" d="M447.8,219.6V210h10.4v9.7H447.8z M447.8,264.4V225h10.4v39.4H447.8z"/>
				<path class="st5" d="M505.1,264.4h-10.4v-20.1c0-4.3-0.2-7-0.7-8.3c-0.4-1.2-1.2-2.2-2.2-2.9c-1-0.7-2.2-1-3.6-1
					c-1.8,0-3.4,0.5-4.9,1.5c-1.4,1-2.4,2.3-3,3.9c-0.5,1.6-0.8,4.7-0.8,9.1v17.9h-10.4V225h9.7v5.8c3.4-4.5,7.8-6.7,13-6.7
					c2.3,0,4.4,0.4,6.3,1.2c1.9,0.8,3.3,1.9,4.3,3.2c1,1.3,1.7,2.7,2,4.4c0.4,1.6,0.6,4,0.6,7V264.4z"/>
				<path class="st5" d="M514.1,267l11.9,1.4c0.2,1.4,0.7,2.3,1.4,2.9c1,0.7,2.5,1.1,4.7,1.1c2.7,0,4.8-0.4,6.1-1.2
					c0.9-0.5,1.6-1.4,2.1-2.6c0.3-0.9,0.5-2.5,0.5-4.8V258c-3.1,4.3-7.1,6.4-11.8,6.4c-5.3,0-9.5-2.2-12.6-6.7
					c-2.4-3.5-3.6-7.9-3.6-13.2c0-6.6,1.6-11.7,4.8-15.1c3.2-3.5,7.1-5.2,11.9-5.2c4.9,0,8.9,2.1,12.1,6.4V225h9.8v35.4
					c0,4.7-0.4,8.1-1.2,10.4c-0.8,2.3-1.8,4.1-3.2,5.4c-1.4,1.3-3.2,2.3-5.6,3.1c-2.3,0.7-5.2,1.1-8.8,1.1c-6.7,0-11.4-1.1-14.2-3.4
					c-2.8-2.3-4.2-5.2-4.2-8.7C514.1,267.9,514.1,267.5,514.1,267z M523.5,243.9c0,4.2,0.8,7.2,2.4,9.2c1.6,1.9,3.6,2.9,6,2.9
					c2.5,0,4.7-1,6.5-3c1.8-2,2.6-4.9,2.6-8.9c0-4.1-0.8-7.1-2.5-9.1c-1.7-2-3.8-3-6.4-3c-2.5,0-4.6,1-6.2,2.9
					C524.3,236.9,523.5,239.9,523.5,243.9z"/>
			</g>
		</g>
	</g>
</g>
</svg>
